# xmcd CD database file
#
# Track frame offsets:
#	150
#	13775
#	31085
#	50147
#	61057
#	75427
#	94540
#	111792
#	130897
#	143987
#	156880
#	170072
#	187167
#	199192
#
# Disc length: 2911 seconds
#
# Revision: 0
# Processed by: cddbd v1.5PL3 Copyright (c) Steve Scherf et al.
# Submitted via: CDex 1.51
#
DISCID=bd0b5d0e
DTITLE=Various Artist - Irish Giants of Country
DYEAR=2000
DGENRE=Country
TTITLE0=Mick Flavin - Jennifer Johnson and me
TTITLE1=Philomena Gegley - Blanket on the ground
TTITLE2=John Hogan - Cottage in the Country
TTITLE3=Jimmy Buckley - Try a little kindness
TTITLE4=Margo - Paper Mansions
TTITLE5=Eamon McCANN - Past the point of rescue
TTITLE6=Ray Lynam - The Gambler
TTITLE7=Philomena Begley - Queen of the silver dollar
TTITLE8=Eamon McCANN - Only the heartaches
TTITLE9=Sean O'Farrell - If I didn't have a dime
TTITLE10=Philomena Begley and Mick Flavin - Somhere between
TTITLE11=John Hogan - Some days are diamonds
TTITLE12=Jimmy Buckley - Blue eyes crying in the rain
TTITLE13=Margo - Irish Harvest Day
EXTD=YEAR: 2000
EXTT0=
EXTT1=
EXTT2=
EXTT3=
EXTT4=
EXTT5=
EXTT6=
EXTT7=
EXTT8=
EXTT9=
EXTT10=
EXTT11=
EXTT12=
EXTT13=
PLAYORDER=
